:SAMPLES-PER-SECOND 30
:FULLY-SPECIFIED
:DEGREES
80
root  -59.0693 36.7298 -2.98946 -140.388 -14.5501 -177.771
RightUpLeg  -76.8449 -15.3445 16.8214
RightLeg  41.1106 -8.3686 -8.03605
RightFoot  -1.32547 0.418676 -4.87343
RightToes  0.000482159 0.542163 -0.142577
Spine  74.9218 -3.68128 5.92865
Spine1  1.55821 3.02012 -9.60069
HEad  -50.5242 -6.61857 9.10671
LeftShoulder1  4.62508 -26.9557 -7.49832
LeftArm  -101.943 -60.4187 33.7878
LeftForeArm  4.83116 -18.875 -1.15303
LeftHand  -0.25398 0.0180481 5.50724
RightShoulder  2.51362 13.7722 6.97022
RightArm  -70.4951 63.825 -13.0708
RightForeArm  -30.2546 26.0823 6.97601
RightHand  -2.67606 14.1426 -16.3059
LeftUpLeg  -82.9932 23.0688 -29.9753
LeftLeg  46.7432 0.864569 1.41341
LeftFoot  -6.09254 -0.484346 11.3303
LeftToes  1.06247e-005 4.65854e-005 -8.18501e-006
81
root  -59.0474 36.9857 -2.9428 -141.157 -14.4939 -177.453
RightUpLeg  -75.0342 -15.7822 17.4628
RightLeg  38.8658 -8.10311 -7.22131
RightFoot  -0.843177 0.476677 -5.2451
RightToes  0.000482159 0.542163 -0.142577
Spine  74.4186 -3.64966 6.30038
Spine1  1.3735 3.65103 -10.6684
HEad  -49.7649 -7.84338 9.83776
LeftShoulder1  4.87942 -28.1793 -7.74713
LeftArm  -99.9476 -61.0629 27.5594
LeftForeArm  9.68206 -21.2893 -3.17402
LeftHand  -0.25398 0.0180481 5.50724
RightShoulder  2.90042 13.5075 9.76803
RightArm  -65.2541 62.6963 -11.4726
RightForeArm  -29.7529 26.7438 7.11794
RightHand  -2.39051 13.782 -14.9031
LeftUpLeg  -81.4577 23.7718 -29.5215
LeftLeg  44.9134 0.653322 1.11407
LeftFoot  -5.88412 -0.508163 11.367
LeftToes  1.06247e-005 4.65854e-005 -8.18501e-006
82
root  -58.9734 37.2806 -2.89825 -142.182 -14.4634 -177.289
RightUpLeg  -72.8079 -16.4774 18.0755
RightLeg  36.3329 -7.59488 -6.22273
RightFoot  -0.419719 0.514115 -5.39856
RightToes  0.000482159 0.542163 -0.142577
Spine  73.5102 -3.16367 5.30469
Spine1  2.28942 3.01907 -9.1996
HEad  -49.4204 -6.71819 8.74521
LeftShoulder1  5.52667 -26.3964 -11.1321
LeftArm  -96.5899 -61.6765 24.6269
LeftForeArm  11.4813 -23.8544 -4.53964
LeftHand  -0.25398 0.0180481 5.50724
RightShoulder  2.69151 14.5599 7.32361
RightArm  -60.8048 61.6098 -5.01294
RightForeArm  -26.9435 28.341 7.40942
RightHand  -2.04894 12.9795 -13.3991
LeftUpLeg  -79.4338 24.6026 -29.0261
LeftLeg  42.7158 0.322372 0.723353
LeftFoot  -5.41628 -0.563017 11.4683
LeftToes  1.06247e-005 4.65854e-005 -8.18501e-006
83
root  -58.8406 37.5936 -2.85969 -143.235 -14.4946 -177.586
RightUpLeg  -70.6433 -17.5093 18.4395
RightLeg  33.9498 -7.00168 -5.29822
RightFoot  -0.0995112 0.587959 -5.96911
RightToes  0.000482159 0.542163 -0.142577
Spine  72.1792 -3.05668 5.04566
Spine1  2.88518 2.84608 -9.30051
HEad  -48.8324 -6.9342 8.7604
LeftShoulder1  5.84271 -26.841 -11.9875
LeftArm  -89.0152 -61.446 17.3521
LeftForeArm  12.9814 -26.8018 -5.07474
LeftHand  -0.25398 0.0180481 5.50724
RightShoulder  2.97457 14.9007 8.73614
RightArm  -55.0416 59.7475 -0.051635
RightForeArm  -24.7163 30.7709 7.94808
RightHand  -1.66221 11.7743 -11.7044
LeftUpLeg  -76.906 25.3607 -28.7503
LeftLeg  40.0839 -0.306992 0.113916
LeftFoot  -4.72926 -0.630302 11.3687
LeftToes  1.06247e-005 4.65854e-005 -8.18501e-006
84
root  -58.6111 37.9405 -2.84389 -144.762 -14.6452 -177.779
RightUpLeg  -67.7981 -18.4409 18.5878
RightLeg  31.4695 -6.62076 -4.59742
RightFoot  0.203884 0.650899 -6.41492
RightToes  0.000482159 0.542163 -0.142577
Spine  70.9941 -2.93735 4.72248
Spine1  3.26127 2.67118 -9.41899
HEad  -48.0324 -6.82332 8.61776
LeftShoulder1  6.33284 -26.9572 -13.6673
LeftArm  -80.405 -60.7898 9.90313
LeftForeArm  14.2006 -29.59 -5.65102
LeftHand  -0.25398 0.0180481 5.50724
RightShoulder  3.43098 15.7439 10.5912
RightArm  -49.6116 57.2229 5.66301
RightForeArm  -20.6198 33.2163 8.4391
RightHand  -1.25881 10.6956 -9.56327
LeftUpLeg  -73.8971 26.5834 -28.1318
LeftLeg  37.237 -1.21722 -0.617974
LeftFoot  -3.91247 -0.679806 10.805
LeftToes  1.06247e-005 4.65854e-005 -8.18501e-006
85
root  -58.2864 38.3077 -2.86843 -146.84 -15.0703 -177.85
RightUpLeg  -64.2126 -19.635 18.7947
RightLeg  28.8568 -6.0989 -3.86594
RightFoot  0.41092 0.620904 -5.99618
RightToes  0.000482159 0.542163 -0.142577
Spine  69.9331 -2.77999 4.60318
Spine1  3.80039 2.73636 -9.27016
HEad  -47.3725 -6.8 8.18379
LeftShoulder1  6.94044 -26.6971 -16.0549
LeftArm  -71.5485 -59.9987 2.42645
LeftForeArm  15.2664 -32.3607 -6.2727
LeftHand  -0.25398 0.0180481 5.50724
RightShoulder  3.82295 16.002 12.5566
RightArm  -44.498 54.5129 11.6458
RightForeArm  -15.2736 35.8086 8.93932
RightHand  -0.909413 10.1087 -7.30682
LeftUpLeg  -70.3745 28.1044 -26.954
LeftLeg  34.3531 -2.13946 -1.20969
LeftFoot  -2.9158 -0.726026 10.0671
LeftToes  1.06247e-005 4.65854e-005 -8.18501e-006
86
root  -57.88 38.6591 -2.9405 -149.306 -15.6367 -178.012
RightUpLeg  -60.6336 -21.732 19.615
RightLeg  26.5758 -4.84693 -2.86555
RightFoot  0.520012 0.630804 -6.02686
RightToes  0.000482159 0.542163 -0.142577
Spine  68.9635 -2.39416 4.53412
Spine1  4.27076 2.84055 -8.41253
HEad  -46.5292 -6.91555 7.51785
LeftShoulder1  7.66867 -26.2055 -19.1123
LeftArm  -62.3248 -58.7659 -5.00172
LeftForeArm  16.0987 -35.128 -6.94962
LeftHand  -0.25398 0.0180481 5.50724
RightShoulder  4.09006 15.767 14.344
RightArm  -39.2353 51.4553 17.4777
RightForeArm  -10.9327 38.8206 9.65696
RightHand  -0.675427 9.6539 -5.70663
LeftUpLeg  -66.3761 29.6521 -25.3421
LeftLeg  31.5945 -2.99192 -1.63012
LeftFoot  -1.81374 -0.774575 9.4027
LeftToes  1.06247e-005 4.65854e-005 -8.18501e-006
87
root  -57.4171 38.971 -3.03768 -151.959 -16.0535 -178.272
RightUpLeg  -58.0192 -24.9493 21.2345
RightLeg  25.4304 -2.55088 -1.54988
RightFoot  1.09754 0.838002 -7.55672
RightToes  0.000482159 0.542163 -0.142577
Spine  67.9469 -1.99256 4.35737
Spine1  4.43103 2.79616 -7.69294
HEad  -44.9197 -6.88292 7.28738
LeftShoulder1  8.17068 -25.4938 -21.6465
LeftArm  -53.3881 -56.6207 -12.2907
LeftForeArm  16.3976 -37.5471 -7.6096
LeftHand  -0.25398 0.0180481 5.50724
RightShoulder  4.39146 15.5768 16.2974
RightArm  -33.9893 47.991 22.6972
RightForeArm  -8.75896 41.9201 10.5972
RightHand  -0.550626 8.74196 -5.00532
LeftUpLeg  -61.9782 31.0217 -23.2304
LeftLeg  29.0125 -3.62102 -1.82871
LeftFoot  -0.781895 -0.779632 8.47388
LeftToes  1.06247e-005 4.65854e-005 -8.18501e-006
88
root  -56.933 39.2399 -3.1304 -154.576 -16.1413 -178.368
RightUpLeg  -56.6527 -28.4026 22.6689
RightLeg  26.1834 0.709129 0.158147
RightFoot  2.97966 0.931801 -7.29123
RightToes  0.000482159 0.542163 -0.142577
Spine  66.5117 -1.79736 4.07489
Spine1  4.40364 2.73371 -7.83938
HEad  -42.4805 -6.52229 7.57022
LeftShoulder1  8.26498 -24.4635 -23.1179
LeftArm  -45.8901 -53.5054 -18.9491
LeftForeArm  15.7986 -39.33 -8.17998
LeftHand  -0.25398 0.0180481 5.50724
RightShoulder  4.75775 15.5654 18.4025
RightArm  -28.9635 44.4795 27.187
RightForeArm  -7.73532 44.4063 11.4741
RightHand  -0.482889 7.41039 -4.83058
LeftUpLeg  -57.5448 32.0585 -20.4873
LeftLeg  26.6953 -3.63966 -1.65118
LeftFoot  0.131525 -0.704377 6.99816
LeftToes  1.06247e-005 4.65854e-005 -8.18501e-006
89
root  -56.44 39.451 -3.22758 -157.05 -15.9344 -178.182
RightUpLeg  -55.7747 -30.6698 22.1475
RightLeg  29.1973 4.5629 2.53992
RightFoot  6.03264 0.108801 -0.591142
RightToes  0.000482159 0.542163 -0.142577
Spine  64.4144 -1.58159 3.78944
Spine1  4.43923 2.96396 -8.27459
HEad  -39.6779 -6.2015 7.7293
LeftShoulder1  8.28094 -23.4693 -24.3484
LeftArm  -40.2936 -49.576 -24.3455
LeftForeArm  14.6062 -40.7269 -8.69835
LeftHand  -0.25398 0.0180481 5.50724
RightShoulder  5.01395 15.2415 20.3361
RightArm  -23.9619 41.441 30.8206
RightForeArm  -6.8297 45.8952 12.0245
RightHand  -0.450067 6.22843 -4.91351
LeftUpLeg  -53.5897 32.8998 -17.3942
LeftLeg  25.0314 -3.15631 -1.26787
LeftFoot  0.89338 -0.577171 5.32811
LeftToes  1.06247e-005 4.65854e-005 -8.18501e-006
90
root  -55.8982 39.5365 -3.38379 -159.508 -15.6906 -178.092
RightUpLeg  -54.5434 -31.3598 18.8364
RightLeg  34.1406 8.35535 5.83536
RightFoot  8.41654 -1.84276 10.9565
RightToes  0.000482159 0.542163 -0.142577
Spine  62.1688 -1.40259 3.23491
Spine1  4.25812 3.08156 -8.49868
HEad  -36.6859 -5.75341 7.61896
LeftShoulder1  8.31287 -22.2664 -25.9955
LeftArm  -36.0903 -44.8684 -27.9076
LeftForeArm  13.3711 -42.3219 -9.31184
LeftHand  -0.25398 0.0180481 5.50724
RightShoulder  5.19117 14.9185 21.8641
RightArm  -18.9657 38.9678 34.0462
RightForeArm  -6.2037 46.5841 12.2782
RightHand  -0.47586 5.64938 -5.39629
LeftUpLeg  -50.2506 33.8324 -14.4385
LeftLeg  24.6736 -2.92068 -1.12267
LeftFoot  1.21294 -0.431902 3.85187
LeftToes  1.06247e-005 4.65854e-005 -8.18501e-006
91
root  -55.2543 39.5051 -3.63509 -162.132 -15.7374 -178.48
RightUpLeg  -52.6202 -30.85 13.4746
RightLeg  39.6462 10.8374 9.21153
RightFoot  8.48977 -3.30218 19.1266
RightToes  0.000482159 0.542163 -0.142577
Spine  60.2413 -1.25299 2.47276
Spine1  3.81715 2.98688 -8.38409
HEad  -33.5899 -5.75032 7.68332
LeftShoulder1  8.42541 -21.1786 -27.9516
LeftArm  -32.6505 -39.6335 -30.039
LeftForeArm  12.6605 -44.3457 -10.0815
LeftHand  -0.25398 0.0180481 5.50724
RightShoulder  5.33268 14.5901 23.2408
RightArm  -14.631 36.4151 36.7769
RightForeArm  -6.34493 47.3807 12.6387
RightHand  -0.541487 5.3848 -6.21789
LeftUpLeg  -46.8354 34.7207 -11.5731
LeftLeg  25.1528 -3.14747 -1.26352
LeftFoot  1.24913 -0.275951 2.43518
LeftToes  1.06247e-005 4.65854e-005 -8.18501e-006
92
root  -54.5327 39.5139 -3.95999 -164.838 -16.0322 -178.836
RightUpLeg  -49.7211 -29.1384 7.77892
RightLeg  42.9747 10.5047 10.0142
RightFoot  6.88536 -3.01448 18.8699
RightToes  0.000482159 0.542163 -0.142577
Spine  58.8366 -1.09362 2.32089
Spine1  3.12753 2.87387 -7.9218
HEad  -30.595 -6.67526 8.12919
LeftShoulder1  8.61281 -20.4306 -29.8528
LeftArm  -29.6317 -34.1758 -31.5613
LeftForeArm  12.4558 -46.7838 -11.0448
LeftHand  -0.25398 0.0180481 5.50724
RightShoulder  5.38263 13.9466 24.6944
RightArm  -11.4007 33.1744 38.8521
RightForeArm  -6.88428 49.1893 13.523
RightHand  -0.553572 4.54534 -6.82002
LeftUpLeg  -42.7512 35.2189 -8.18248
LeftLeg  24.9032 -3.19458 -1.27024
LeftFoot  1.74469 -0.109486 0.868263
LeftToes  1.06247e-005 4.65854e-005 -8.18501e-006
